<svg xmlns="http://www.w3.org/2000/svg" width="228" height="42" viewBox="0 0 228 42" fill="none" id="svg1944711157_13889">
<path d="M187.602 3.55974L195.995 22.5284C196.397 23.4359 196.472 24.5072 196.199 25.6125L192.924 39.0271C192.713 39.8868 193.586 40.3713 194.391 39.8391L204.537 33.1727C204.838 32.9748 205.056 32.6746 205.131 32.3608L206.755 25.633C207.021 24.514 207.628 23.4291 208.488 22.5148L226.283 3.56656C226.924 2.88424 226.665 1.94263 225.833 1.94263H188.837C188.011 1.94263 187.295 2.87741 187.595 3.55974H187.602Z" fill="url(#svg1944711157_13889_paint0_linear_50_142)"></path>
<mask id="svg1944711157_13889_mask0_50_142" style="mask-type:luminance" maskUnits="userSpaceOnUse" x="187" y="1" width="40" height="40">
<path d="M187.602 3.55974L195.995 22.5284C196.397 23.4359 196.472 24.5072 196.199 25.6125L192.924 39.0271C192.713 39.8868 193.586 40.3713 194.391 39.8391L204.537 33.1727C204.838 32.9748 205.056 32.6746 205.131 32.3608L206.755 25.633C207.021 24.514 207.628 23.4291 208.488 22.5148L226.283 3.56656C226.924 2.88424 226.665 1.94263 225.833 1.94263H188.837C188.011 1.94263 187.295 2.87741 187.595 3.55974H187.602Z" fill="white"></path>
</mask>
<g mask="url(#svg1944711157_13889_mask0_50_142)">
<path d="M215.768 2.72729L205.67 18.9189C204.271 20.8021 203.261 22.9515 202.708 25.2304L201.746 29.1606C201.583 29.8361 201.255 30.457 200.791 30.9824L194.227 37.9217C193.879 38.2902 193.408 38.529 192.903 38.5972L190.427 38.9315L189.512 41.2856L193.654 41.0399V42.0157H242.945L246.289 1.93579H217.181C216.601 1.93579 216.068 2.23601 215.761 2.72047L215.768 2.72729Z" fill="url(#svg1944711157_13889_paint1_linear_50_142)"></path>
</g>
<path d="M203.227 12.1979C202.9 12.232 202.34 12.2934 201.699 12.2934C201.058 12.2934 200.525 12.232 200.212 12.1979C200.096 12.1842 200.027 12.2115 199.959 12.3343L199.338 13.4875C199.229 13.6853 199.161 13.7536 198.854 13.7945C198.601 13.8286 198.158 13.8491 197.714 13.8491C197.237 13.8491 196.759 13.8286 196.5 13.7809C196.37 13.7604 196.329 13.6853 196.329 13.6103C196.329 13.5352 196.356 13.4533 196.404 13.3851L200.648 6.2548C200.792 6.01599 200.942 5.94775 201.262 5.94775H204.92C205.24 5.94775 205.363 6.0774 205.404 6.31621L206.612 13.3851C206.612 13.3851 206.619 13.4261 206.619 13.4533C206.619 13.6103 206.53 13.7604 206.339 13.7877C206.032 13.8286 205.479 13.8491 204.954 13.8491C204.544 13.8491 204.155 13.8354 203.93 13.8013C203.644 13.7604 203.61 13.6922 203.582 13.4943L203.439 12.3412C203.425 12.2183 203.364 12.191 203.241 12.2047L203.227 12.1979ZM200.976 10.4511C200.976 10.5057 201.017 10.533 201.105 10.5466C201.351 10.5876 201.74 10.5944 202.061 10.5944C202.381 10.5944 202.784 10.5944 203.043 10.5466C203.186 10.5262 203.227 10.4716 203.214 10.3556L202.886 7.9265C202.873 7.81733 202.839 7.79004 202.729 7.79004H202.586C202.477 7.79004 202.422 7.81051 202.368 7.91968L201.003 10.3556C200.983 10.3965 200.969 10.4306 200.969 10.4579L200.976 10.4511Z" fill="white"></path>
<path d="M212.923 12.2047C212.903 12.6345 212.773 13.2486 212.63 13.6034C212.562 13.774 212.466 13.7945 212.309 13.7945H207.369C207.212 13.7945 207.137 13.7331 207.144 13.583C207.164 13.1531 207.301 12.539 207.437 12.1842C207.506 12.0136 207.594 11.9932 207.758 11.9932H208.652C208.747 11.9932 208.795 11.9522 208.816 11.8567L209.662 7.87873C209.662 7.87873 209.662 7.84461 209.662 7.83096C209.662 7.76955 209.621 7.74226 209.546 7.74226H208.652C208.495 7.74226 208.42 7.68085 208.427 7.53074C208.447 7.10087 208.584 6.48678 208.72 6.13197C208.788 5.96139 208.884 5.94092 209.041 5.94092H213.981C214.145 5.94092 214.213 6.00233 214.206 6.15244C214.186 6.58231 214.056 7.1964 213.913 7.55121C213.844 7.72179 213.749 7.74226 213.592 7.74226H212.705C212.609 7.74226 212.562 7.7832 212.548 7.87873L211.702 11.8567C211.702 11.8567 211.702 11.8908 211.702 11.9045C211.702 11.9659 211.743 11.9932 211.818 11.9932H212.705C212.869 11.9932 212.937 12.0546 212.93 12.2047H212.923Z" fill="white"></path>
<path d="M0.658257 31.9174C-0.0854789 31.8355 -0.037716 31.4466 0.0441632 31.0577L2.88264 18.032C2.9304 17.8342 2.88264 17.7045 2.62336 17.7045H1.14271C0.719667 17.7045 0.460382 17.5885 0.480852 17.2201C0.494499 16.7629 0.644611 15.8895 0.787899 15.255C0.903895 14.6886 1.14271 13.7607 1.32011 13.324C1.48387 12.9692 1.77727 12.8532 2.19349 12.8532H4.00848C4.00848 12.8532 10.5452 12.8054 15.0553 12.8054C22.6769 12.8054 25.5837 14.6204 24.4305 19.8811C23.2774 25.1555 19.2585 26.9228 14.5982 26.9228C12.831 26.9228 10.6066 26.8613 9.5558 26.759C9.28287 26.7249 9.03723 26.875 8.95535 27.1957L8.10926 31.0577C8.02739 31.4466 7.86363 31.8219 7.13354 31.9174C6.41709 32.0129 5.0115 32.0607 3.8379 32.0607C2.54148 32.0607 1.35423 31.9993 0.644611 31.9174H0.658257ZM16.2904 19.847C16.6929 17.9638 15.8196 17.1723 13.7589 17.1723C12.7832 17.1723 12.1213 17.2201 11.6028 17.2883C11.2002 17.3361 11.0842 17.5135 11.016 17.8546L10.1221 21.8462C10.0539 22.1874 10.1221 22.3648 10.4155 22.3989C11.0501 22.4808 11.3913 22.5286 12.558 22.5286C14.6323 22.5286 15.8673 21.7303 16.2904 19.8539V19.847Z" fill="white"></path>
<path d="M26.3546 31.9173C25.8019 31.8559 25.6381 31.542 25.7541 31.0576L27.6169 22.5558C27.6646 22.3579 27.6032 22.2283 27.3235 22.2283H25.9588C25.5699 22.2283 25.3925 22.0986 25.4402 21.6756C25.4539 21.3481 25.5699 20.6521 25.7473 19.8128C25.9452 18.9395 26.1021 18.339 26.2317 17.9978C26.375 17.527 26.6684 17.4452 27.0096 17.4452H34.5356C34.9723 17.4452 35.1361 17.5407 35.1497 17.9296L35.1839 19.035C35.1839 19.2465 35.3135 19.2943 35.5591 19.2943H35.7707C35.9958 19.2943 36.1255 19.2943 36.3029 19.1305C37.456 18.0797 38.9776 17.2336 41.0246 17.2336C41.2975 17.2336 41.5909 17.2336 41.898 17.2814C42.3005 17.3428 42.4165 17.411 42.3688 17.8C42.321 18.2025 42.1709 19.035 42.0139 19.847C41.8024 20.693 41.6387 21.389 41.4613 22.0236C41.3657 22.3306 41.2156 22.4944 40.7994 22.4807C40.6698 22.4807 40.1512 22.433 39.5985 22.433C36.4666 22.433 35.0747 24.0228 34.5356 26.4246L33.5326 31.0644C33.4507 31.4533 33.2392 31.8286 32.5296 31.9241C31.7518 32.0401 30.6805 32.1015 29.4182 32.1015C28.2514 32.1015 27.0983 32.0197 26.3546 31.9241V31.9173Z" fill="white"></path>
<path d="M41.8843 24.6779C43.1193 19.0623 47.3702 17.0017 53.709 17.0017C60.0478 17.0017 63.4117 19.0623 62.1767 24.6779C60.9621 30.2934 56.7112 32.3472 50.3519 32.3472C43.9927 32.3472 40.6697 30.2866 41.8843 24.6779ZM54.4391 24.6779C54.944 22.3921 54.712 21.2253 52.7674 21.2253C50.8227 21.2253 50.1199 22.3921 49.6219 24.6779C49.1169 26.9637 49.3489 28.1305 51.2731 28.1305C53.1972 28.1305 53.9342 26.9637 54.4391 24.6779Z" fill="white"></path>
<path d="M62.9753 31.9172C62.2929 31.7876 62.2588 31.4464 62.3407 31.0575L66.073 14.0062C66.2709 13.0645 66.5438 12.853 67.5332 12.853H85.1304C85.5671 12.853 85.765 12.9963 85.765 13.3238C85.7513 13.7605 85.6353 14.477 85.4375 15.2889C85.2737 16.1009 85.0826 16.8651 84.8848 17.3018C84.7551 17.6088 84.5095 17.7726 84.0592 17.7726H73.7424C73.4831 17.7726 73.3057 17.9022 73.2374 18.1752L72.6848 20.7203C72.6234 20.9795 72.7462 21.1228 73.0123 21.1228H79.5149C79.9379 21.1228 80.1494 21.2661 80.129 21.6073C80.129 21.9484 80.0334 22.6444 79.8219 23.5178C79.6786 24.2342 79.4807 25.0257 79.2897 25.4624C79.1464 25.8036 78.8871 25.9469 78.4436 25.9469H71.941C71.6817 25.9469 71.4839 26.0902 71.4361 26.3699L70.4331 31.0439C70.3376 31.4328 70.1056 31.7876 69.3482 31.9036C68.7 31.9991 67.5332 32.081 66.1549 32.081C64.9062 32.081 63.6576 32.0332 62.9753 31.9036V31.9172Z" fill="white"></path>
<path d="M86.5702 26.5816L87.464 22.5558C87.5118 22.358 87.4504 22.2283 87.1706 22.2283H85.8264C85.4375 22.2283 85.226 22.0987 85.2738 21.6893C85.3215 21.3686 85.4375 20.6385 85.6286 19.8061C85.7923 19.076 85.9561 18.4141 86.0994 17.9706C86.229 17.5339 86.5224 17.4316 86.8772 17.4316H95.147C95.8908 17.4316 96.3616 17.4316 96.1227 18.5847L94.6012 25.4967C94.3282 26.7112 94.8741 27.2844 95.9795 27.2844C97.0848 27.2844 97.8149 26.7317 98.0401 25.6468L99.664 18.2981C99.7596 17.8137 100.067 17.5203 100.667 17.4384C101.431 17.3224 102.53 17.261 103.765 17.261C105 17.261 106.085 17.3429 106.828 17.4384C107.395 17.5066 107.545 17.8137 107.443 18.2981L105.58 26.7999C105.532 26.9773 105.593 27.1274 105.853 27.1274H106.726C107.149 27.1274 107.313 27.2912 107.279 27.6119C107.183 28.1782 107.115 28.6627 106.924 29.5429C106.712 30.58 106.549 31.003 106.44 31.4056C106.324 31.7604 106.098 31.9105 105.675 31.9105H97.89C97.4669 31.9105 97.3373 31.7331 97.2895 31.4261L97.1599 30.6824C97.1258 30.5049 97.0644 30.4572 96.8665 30.4572H96.5253C96.3616 30.4572 96.2001 30.5163 96.0409 30.6346C95.4882 31.0713 93.9666 32.2381 91.1418 32.2381C87.6073 32.2381 85.69 30.6346 86.5702 26.5747V26.5816Z" fill="white"></path>
<path d="M109.285 31.9173C108.718 31.8559 108.555 31.5625 108.671 31.0576L110.52 22.5558C110.567 22.3579 110.506 22.2283 110.247 22.2283H108.882C108.493 22.2283 108.282 22.0986 108.329 21.6892C108.377 21.3685 108.493 20.6384 108.684 19.806C108.848 19.0759 109.012 18.414 109.155 17.9705C109.285 17.5338 109.578 17.4315 109.933 17.4315H118.223C118.578 17.4315 118.81 17.5475 118.837 17.9159L118.905 18.8098C118.919 19.035 119.001 19.0827 119.26 19.0827H119.472C119.636 19.0827 119.779 19.0827 120.004 18.9053C120.523 18.4823 122.549 17.0903 125.435 17.0903C128.956 17.0903 130.43 19.0691 129.604 22.7536L128.731 26.793C128.697 26.9909 128.745 27.1205 128.99 27.1205H129.864C130.205 27.1205 130.478 27.2161 130.416 27.6527C130.382 27.9803 130.253 28.7035 130.062 29.536C129.918 30.2661 129.707 31.0576 129.591 31.3714C129.475 31.774 129.215 31.9036 128.813 31.9036H124.385C121.43 31.9036 119.956 31.351 120.782 27.5709L121.56 24.0159C121.805 22.8151 121.205 22.2487 120.1 22.2487C118.994 22.2487 118.237 22.8151 118.005 23.9204L116.449 31.0439C116.354 31.4806 116.108 31.8081 115.426 31.9036C114.682 32.0196 113.542 32.081 112.314 32.081C111.086 32.081 110.063 31.9992 109.278 31.9036L109.285 31.9173Z" fill="white"></path>
<path d="M132.129 31.9173C131.563 31.8559 131.399 31.5625 131.515 31.0576L133.364 22.5558C133.412 22.3579 133.35 22.2283 133.091 22.2283H131.726C131.337 22.2283 131.126 22.0986 131.174 21.6892C131.221 21.3685 131.337 20.6384 131.528 19.806C131.692 19.0759 131.856 18.414 131.999 17.9705C132.129 17.5338 132.422 17.4315 132.777 17.4315H141.067C141.422 17.4315 141.654 17.5475 141.681 17.9159L141.75 18.8098C141.763 19.035 141.845 19.0827 142.105 19.0827H142.316C142.48 19.0827 142.623 19.0827 142.848 18.9053C143.367 18.4823 145.393 17.0903 148.28 17.0903C151.8 17.0903 153.274 19.0691 152.449 22.7536L151.575 26.793C151.541 26.9909 151.589 27.1205 151.835 27.1205H152.708C153.049 27.1205 153.322 27.2161 153.261 27.6527C153.226 27.9803 153.097 28.7035 152.906 29.536C152.762 30.2661 152.551 31.0576 152.435 31.3714C152.319 31.774 152.06 31.9036 151.657 31.9036H147.229C144.274 31.9036 142.801 31.351 143.626 27.5709L144.404 24.0159C144.65 22.8151 144.049 22.2487 142.944 22.2487C141.838 22.2487 141.081 22.8151 140.849 23.9204L139.293 31.0439C139.198 31.4806 138.952 31.8081 138.27 31.9036C137.526 32.0196 136.387 32.081 135.158 32.081C133.93 32.081 132.907 31.9992 132.122 31.9036L132.129 31.9173Z" fill="white"></path>
<path d="M154.496 24.5824C155.758 18.6802 160.48 17.0085 166.259 17.0085C171.629 17.0085 175.928 18.2913 175.197 22.4945C174.563 26.2268 170.851 26.5202 162.725 26.5202C162.465 26.5202 162.349 26.6021 162.288 26.8613C162.029 27.994 163.195 28.2738 165.856 28.2738C169.097 28.2738 171.063 27.6733 171.84 27.5096C172.441 27.3799 172.475 27.5778 172.489 27.8644C172.475 28.6763 172.229 29.9386 171.97 30.7165C171.854 31.1191 171.772 31.2009 171.335 31.3647C170.38 31.7059 167.897 32.3404 163.905 32.3404C157.088 32.3404 153.213 30.6346 154.496 24.5892V24.5824ZM167.405 22.0987C167.603 21.1571 166.934 20.7068 165.686 20.7068C164.212 20.7068 163.059 21.6006 162.881 23.2245C162.868 23.4497 162.847 23.4975 163.127 23.4975C166.061 23.4975 167.132 23.3678 167.412 22.1055L167.405 22.0987Z" fill="white"></path>
<path d="M179.141 31.9172C176.03 31.9172 174.727 31.2349 175.525 27.5845L177.988 16.3943C178.022 16.1964 177.974 16.0668 177.695 16.0668H176.351C175.962 16.0668 175.75 15.9372 175.798 15.5346C175.832 15.2071 175.962 14.477 176.139 13.6514C176.303 12.9213 176.48 12.2594 176.61 11.8159C176.726 11.3792 177.047 11.2837 177.408 11.2837H185.664C186.428 11.2837 186.899 11.2837 186.64 12.4368L183.474 26.8066C183.44 27.0045 183.488 27.1341 183.767 27.1341H184.641C185.064 27.1341 185.228 27.2979 185.159 27.6664C185.112 28.0894 185.016 28.6694 184.818 29.5496C184.641 30.423 184.477 30.9279 184.347 31.385C184.231 31.774 183.993 31.9172 183.583 31.9172H179.141Z" fill="white"></path>
<path d="M225.833 1.94253C226.659 1.94253 226.918 2.88415 226.283 3.56647L208.488 22.5147C207.629 23.429 207.021 24.5139 206.755 25.6329L205.131 32.3607C205.056 32.6814 204.838 32.9748 204.538 33.1726L194.392 39.839C194.16 39.9891 193.921 40.0573 193.709 40.0573C193.177 40.0573 192.774 39.6343 192.925 39.027L196.2 25.6124C196.466 24.5139 196.398 23.4358 195.995 22.5283L187.602 3.55965C187.302 2.87732 188.019 1.94253 188.844 1.94253H225.84M225.833 0.577881H188.837C187.957 0.577881 187.097 1.06233 186.593 1.84019C186.129 2.5498 186.04 3.40271 186.347 4.11233L194.74 23.081C195.026 23.7156 195.067 24.4798 194.869 25.2849L191.594 38.6995C191.423 39.3886 191.567 40.0778 191.976 40.6032C192.385 41.1217 193.013 41.422 193.702 41.422C194.194 41.422 194.692 41.2718 195.135 40.9784L205.281 34.3121C205.868 33.9232 206.291 33.3296 206.448 32.6814L208.072 25.9536C208.284 25.0734 208.782 24.1864 209.471 23.4563L227.273 4.50808C227.976 3.75752 228.194 2.71356 227.819 1.85383C227.478 1.06916 226.72 0.584704 225.833 0.584704V0.577881Z" fill="white"></path>
<defs>
<linearGradient id="svg1944711157_13889_paint0_linear_50_142" x1="226.638" y1="21" x2="187.534" y2="21" gradientUnits="userSpaceOnUse">
<stop stop-color="#39B54A"></stop>
<stop offset="1" stop-color="#8CC63F"></stop>
</linearGradient>
<linearGradient id="svg1944711157_13889_paint1_linear_50_142" x1="217.904" y1="42.0225" x2="217.904" y2="1.94261" gradientUnits="userSpaceOnUse">
<stop stop-opacity="0.4"></stop>
<stop offset="1" stop-opacity="0.1"></stop>
</linearGradient>
</defs>
</svg>