<svg width="19" height="19" viewBox="0 0 19 19" fill="none" xmlns="http://www.w3.org/2000/svg">
<g clip-path="url(#clip0_1_65)">
<path d="M16.647 8.79787V9.48787C16.6461 11.1052 16.1224 12.6789 15.154 13.9742C14.1857 15.2696 12.8245 16.2172 11.2736 16.6758C9.72261 17.1344 8.06498 17.0793 6.54789 16.5188C5.03079 15.9583 3.73552 14.9224 2.85525 13.5657C1.97498 12.2089 1.55688 10.6039 1.66329 8.99011C1.76971 7.3763 2.39494 5.84012 3.44574 4.61068C4.49655 3.38124 5.91662 2.52441 7.49418 2.16798C9.07173 1.81156 10.7222 1.97463 12.1995 2.63287" stroke="#A9D76C" stroke-width="2" stroke-linecap="round" stroke-linejoin="round"/>
<path d="M16.647 3.48788L9.14703 10.9954L6.89703 8.74538" stroke="#A9D76C" stroke-width="2" stroke-linecap="round" stroke-linejoin="round"/>
</g>
<defs>
<clipPath id="clip0_1_65">
<rect width="18" height="18" fill="white" transform="translate(0.147034 0.487885)"/>
</clipPath>
</defs>
</svg>
