<svg xmlns="http://www.w3.org/2000/svg"
	 height="5000" width="1440"
	 x="0px" y="0px" viewBox="0 0 1441 5000" style="enable-background:new 0 0 1441 5000;" xml:space="preserve">
<style type="text/css">
	.st0{opacity:0.1;enable-background:new    ;}
</style>
<g>
	<path class="st0" d="M0,4924.4v56c57.3,9.8,124.3,14.1,189.6,12.3c84.4-2.4,135-1.1,247-6.5c88.6-1.9,123.7-10.6,263,5.5
		c83.1,7.9,166,11,251.3,5.8c43.4-2.6,83.8-7.9,125.3-12.9C1187.4,4971,1329,4960,1440,5000v-80L0,4924.4z"/>
	<path class="st0" d="M0,4920v51.1c57.3,19.5,140.5,16.3,189.6,14.2c84.4-4.7,165,11.7,249.6,8c88.6-3.8,175.6-26.2,260.4-10
		c83.1,15.8,166,21.9,251.3,11.5c43.4-5.3,70.5,1.2,130.1-6.7c150.2-15.2,179.6-3.7,359,0V4920H0z"/>
	<path d="M0,4971.2c0,0,172.6,20.4,324.6,5.3c152-15.1,398.2,13.3,498.7,11.6c100.4-1.8,358.2-31.3,430.2-28
		c86.2,4,187.6,10.2,187.6,10.2L1440,0H0V4971.2z"/>
</g>
</svg>
