<svg height="5000" viewBox="0 0 1440 5000" width="1440" xmlns="http://www.w3.org/2000/svg"><path d="m1440 4997.98-24.79-23.86.13-.12.92-.89h-2.1l.92.89.13.12-26.74 25.74-26.74-25.74.13-.12.92-.89h-2.1l.92.89.13.12-26.74 25.74-26.74-25.73.14-.13.92-.89h-2.11l.92.89.13.13-26.74 25.73-26.73-25.73.13-.13.92-.89h-2.11l.92.89.14.13-26.74 25.73-26.74-25.74.13-.12h-.26l.13.12-26.74 25.74-26.74-25.74.13-.12.92-.89h-2.1l.92.89.13.12-26.74 25.74-26.74-25.73.14-.13.92-.89h-2.11l.92.89.13.13-26.74 25.73-26.73-25.73.13-.13.92-.89h-2.11l.92.89.14.13-26.74 25.73-26.74-25.73.13-.13.92-.89h-2.11l.92.89.14.13-26.74 25.73-26.74-25.74.13-.12h-.26l.13.12-26.74 25.74-26.74-25.73.14-.13.92-.89h-2.11l.92.89.13.13-26.74 25.73-26.73-25.73.13-.13.92-.89h-2.11l.92.89.14.13-26.74 25.73-26.74-25.73.13-.13.92-.89h-2.11l.92.89.14.13-26.74 25.73-26.74-25.74.13-.12.92-.89h-2.1l.92.89.13.12-26.74 25.74-26.74-25.74.13-.12.92-.89h-2.1l.92.89.13.12-26.74 25.74-26.73-25.73.13-.13.92-.89h-2.11l.92.89.14.13-26.74 25.73-26.74-25.73.13-.13.92-.89h-2.11l.92.89.14.13-26.74 25.73-26.74-25.74.13-.12.92-.89h-2.1l.92.89.13.12-26.74 25.74-26.74-25.74.13-.12.92-.89h-2.1l.92.89.13.12-26.74 25.74-26.73-25.73.13-.13.92-.89h-2.11l.92.89.14.13-26.74 25.73-26.74-25.73.13-.13.92-.89h-2.11l.92.89.14.13-26.74 25.73-26.74-25.74.13-.12.92-.89h-2.1l.92.89.13.12-26.74 25.74-26.74-25.74.13-.12.92-.89h-2.1l.92.89.13.12-26.74 25.74-26.74-25.73.14-.13.92-.89h-2.11l.92.89.13.13-26.74 25.73-26.73-25.73.13-.13.92-.89h-2.11l.92.89.14.13-26.74 25.73-26.74-25.74.13-.12.92-.89h-2.1l.92.89.13.12-26.74 25.74-26.74-25.74.13-.12.92-.89h-2.1l.92.89.13.12-24.79 23.86v-4997.98h1440z"/></svg>