<svg xmlns="http://www.w3.org/2000/svg"
	 height="5000" width="1440"
	 x="0px" y="0px" viewBox="0 0 1441 5000" style="enable-background:new 0 0 1441 5000;" xml:space="preserve">
<style type="text/css">
	.st0{opacity:0.1;enable-background:new    ;}
</style>
<path class="st0" d="M0,4920v40.7c57.3,19.5,124.3,28.3,189.6,24.6c84.4-4.7,163.6-29.3,248.2-33c88.6-3.8,177,14.8,261.8,31
	c83.1,15.8,166,21.9,251.3,11.5c43.4-5.3,83.8-15.7,125.3-25.8c111.2-27.1,259.4-61.6,363.8-2.9V4920H0z"/>
<path d="M1440,0v4937.9c-91.6,34.4-154.6,55.4-298.6,62.1c-80.8,0-147.9-11.2-218.6-33.8c-63.7-20.4-127.9-26.3-198.7-18.7
	c-52,5.6-101.5,16.6-153.1,23.3c-194.1,25.3-391.1,14.4-571-32.5V0H1440z"/>
</svg>
